Coordinates
version=1
nRows=12
nColumns=24
inDegrees=yes

Units are S.I. units (second, meters, Newtons, ...)
Angles are in degrees.

endheader
time	pelvis_tilt	pelvis_list	pelvis_rotation	pelvis_tx	pelvis_ty	pelvis_tz	hip_flexion_r	hip_adduction_r	hip_rotation_r	knee_angle_r	ankle_angle_r	subtalar_angle_r	mtp_angle_r	hip_flexion_l	hip_adduction_l	hip_rotation_l	knee_angle_l	ankle_angle_l	subtalar_angle_l	mtp_angle_l	lumbar_extension	lumbar_bending	lumbar_rotation
      1.05866667	     -5.41771833	      0.69633183	     -5.24995423	     -0.07928540	      0.87803812	      0.34251741	    -12.49390314	      3.85720696	     -3.08435266	     -7.23537877	     21.84438713	     13.42371617	      9.15174697	     31.30064843	     -0.16710889	     -6.56418339	     -4.69241392	      3.37440762	     -6.28814088	     -0.15564290	     -1.58702528	     -0.16125881	      9.88030160
      1.06283333	     -5.49182050	      0.77767636	     -5.33225668	     -0.07369153	      0.87677773	      0.34241134	    -12.52976138	      3.67892180	     -3.13765754	     -7.80755745	     22.07942556	     13.70239170	      9.31343597	     31.52416232	     -0.07821267	     -6.48334756	     -5.22949951	      3.27730604	     -6.20075534	     -0.10974508	     -1.50668314	     -0.30772476	      9.97360643
      1.06700000	     -5.54945022	      0.87482907	     -5.41356548	     -0.06806323	      0.87559454	      0.34231874	    -12.57952095	      3.48765607	     -3.10861228	     -8.39217554	     22.30617638	     13.82218985	      9.43051085	     31.70132700	      0.03242702	     -6.36075017	     -5.77989184	      3.15227846	     -6.17632851	     -0.06721670	     -1.45218740	     -0.48786505	     10.01466047
      1.07116667	     -5.61114924	      0.98126945	     -5.48038164	     -0.06239607	      0.87445011	      0.34218632	    -12.60315477	      3.28179266	     -3.14761945	     -9.02093710	     22.48689611	     14.02816707	      9.57060427	     31.89437635	      0.15793874	     -6.27977207	     -6.41666365	      2.97161509	     -6.16575545	     -0.00861578	     -1.37854903	     -0.67303190	     10.06999967
      1.07533333	     -5.64583234	      1.09891368	     -5.52208511	     -0.05666661	      0.87339398	      0.34199120	    -12.64463062	      3.05461686	     -3.29200249	     -9.67358110	     22.61899299	     14.40693683	      9.90648853	     32.06184450	      0.31124535	     -6.21791004	     -7.11808983	      2.75679036	     -6.17366109	      0.15191918	     -1.33475860	     -0.86050252	     10.14506606
      1.07950000	     -5.69090309	      1.23298809	     -5.57917188	     -0.05091459	      0.87239652	      0.34184876	    -12.67150329	      2.82143407	     -3.26501824	    -10.33507741	     22.72034399	     14.46300344	     10.07143362	     32.21256616	      0.47289329	     -6.15395304	     -7.80880229	      2.46506292	     -6.24546391	      0.22906477	     -1.26824960	     -1.10027964	     10.14171267
      1.08366667	     -5.65599698	      1.41330331	     -5.58244388	     -0.04502427	      0.87155936	      0.34157389	    -12.77242148	      2.51438462	     -3.51252306	    -11.02507928	     22.80204349	     14.88594918	     11.21751949	     32.26309156	      0.72327474	     -6.08299595	     -8.51158538	      2.12337925	     -6.39107915	      0.80597327	     -1.27954542	     -1.40327147	     10.20116565
      1.08783333	     -5.73891649	      1.51901534	     -5.62455711	     -0.03926283	      0.87063359	      0.34140701	    -12.72345893	      2.31796604	     -3.44793609	    -11.75136794	     22.73386914	     14.88091969	     11.36772679	     32.47279443	      0.85687861	     -6.03899727	     -9.32074744	      1.77745977	     -6.51467183	      0.87398551	     -1.16950304	     -1.57447888	     10.16671069
      1.09200000	     -5.77082334	      1.67740410	     -5.63141870	     -0.03338428	      0.86983949	      0.34114478	    -12.71148738	      2.04797741	     -3.54399716	    -12.52015579	     22.68068190	     15.07283512	     11.59079158	     32.60573661	      1.07138672	     -6.00100046	    -10.11035532	      1.39058153	     -6.67655479	      0.96979541	     -1.10161107	     -1.83213192	     10.15358237
      1.09616667	     -5.78795203	      1.84429494	     -5.62041799	     -0.02745662	      0.86912836	      0.34083989	    -12.69825785	      1.76332976	     -3.68574602	    -13.32519510	     22.59305348	     15.32262774	     11.92969678	     32.71552291	      1.30787518	     -5.95052437	    -10.91096672	      0.98043967	     -6.91796867	      1.10652483	     -1.05271996	     -2.09997832	     10.13036807
      1.10033333	     -5.72777776	      2.02805349	     -5.60195580	     -0.02145524	      0.86862846	      0.34052785	    -12.77585260	      1.45630724	     -3.80174033	    -14.10137577	     22.33398848	     15.40541344	     16.16369564	     32.70852345	      1.57960649	     -5.86915655	    -11.66499583	      0.53388302	     -7.33632939	      2.75148446	     -1.08975837	     -2.40635831	     10.09284615
      1.10450000	     -5.76738496	      2.17212918	     -5.54693935	     -0.01546368	      0.86804051	      0.34017792	    -12.72542164	      1.21124692	     -3.90850312	    -14.92624806	     22.01077629	     15.52876491	     16.22006758	     32.85918303	      1.79782287	     -5.86686598	    -12.54265346	      0.14463952	     -7.42033529	      2.76517955	     -0.99692679	     -2.64068986	     10.04701936
